<svg xmlns="http://www.w3.org/2000/svg" xmlns:xlink="http://www.w3.org/1999/xlink" viewBox="0 0 1366 768"><defs><style>.cls-1{fill:url(#Dégradé_sans_nom_12);}.cls-2{fill:url(#Dégradé_sans_nom_12-2);}.cls-3{fill:url(#Dégradé_sans_nom_12-3);}.cls-4{fill:url(#Dégradé_sans_nom_12-4);}</style><linearGradient id="Dégradé_sans_nom_12" x1="1064.27" y1="693.69" x2="639.65" y2="348.33" gradientTransform="translate(1067 -299) rotate(90)" gradientUnits="userSpaceOnUse"><stop offset="0" stop-color="#64114b"/><stop offset="1" stop-color="#10996d" stop-opacity="0.9"/></linearGradient><linearGradient id="Dégradé_sans_nom_12-2" x1="1040.55" y1="971.88" x2="824.93" y2="765.99" xlink:href="#Dégradé_sans_nom_12"/><linearGradient id="Dégradé_sans_nom_12-3" x1="1103.96" y1="976.82" x2="957.93" y2="866.52" xlink:href="#Dégradé_sans_nom_12"/><linearGradient id="Dégradé_sans_nom_12-4" x1="1134.11" y1="-301.42" x2="931.5" y2="35.47" xlink:href="#Dégradé_sans_nom_12"/></defs><g id="Calque_2" data-name="Calque 2"><g id="Calque_1-2" data-name="Calque 1"><path class="cls-1" d="M1366,768V613.24c-36.28-11.5-79-17.45-120.88-17.89-72.21-.77-142.54,12.65-208.63,29s-130,35.85-198.65,48.39c-46.75,8.54-173.38,17.72-216.18-.42C464.44,605.72,464.2,524.73,459,497c-9-48-31-126-97-112-25.14,5.33-99.24,6.8-136-1-33-7-64.66-18.55-95-59a300.78,300.78,0,0,1-36-65C84,232,82,217,80,190c-4-53.34-3.11-94.74,32-149,11-17,24-25,52-41L0,1V768Z"/><path class="cls-2" d="M0,768H647.45c-11-27.57-28.86-54.26-53.4-78.92-57.9-58.2-152.24-104.69-262.52-129.39-33.72-7.55-69.61-13.37-98-26.07C203,520,184.24,499.61,170.76,479c-33-50.33-39.57-105-70.07-155.87C81,290.3,47,257.77,0,236.3Z"/><path class="cls-3" d="M470.52,753.56C448.1,725.06,411.88,696,357.4,690.1c-25-2.71-53.23-.54-73.54-9.12-17.56-7.42-23.34-20.58-27.18-32.72-1.86-5.86-3.65-11.92-9.32-17-13.62-12.09-43.48-13.84-68.91-13s-53.61,2.42-73.83-6.28c-15.76-6.78-22.39-18.15-28.06-28.84q-22.15-41.79-42-84c-8.9-19-17.67-38.29-34.6-55.42V768H481.1C477.78,763.15,474.28,758.33,470.52,753.56Z"/><path class="cls-4" d="M1171.65,683.07A287.61,287.61,0,0,0,1100.57,708c-33,16.56-59.89,37.15-77.25,60H1366V693.21C1304,679,1234.23,670.24,1171.65,683.07Z"/></g></g></svg>