<svg xmlns="http://www.w3.org/2000/svg" xmlns:xlink="http://www.w3.org/1999/xlink" viewBox="0 0 1366 1536"><defs><style>.cls-1{opacity:0.5;}.cls-2{fill:url(#Dégradé_sans_nom_12);}.cls-3{fill:url(#Dégradé_sans_nom_12-2);}.cls-4{fill:url(#Dégradé_sans_nom_12-3);}.cls-5{fill:url(#Dégradé_sans_nom_12-4);}.cls-6{fill:url(#Dégradé_sans_nom_12-5);}.cls-7{fill:url(#Dégradé_sans_nom_12-6);}.cls-8{fill:url(#Dégradé_sans_nom_12-7);}.cls-9{fill:url(#Dégradé_sans_nom_12-8);}</style><linearGradient id="Dégradé_sans_nom_12" x1="1450.41" y1="1076.18" x2="1027.05" y2="731.85" gradientTransform="matrix(0, 1, 1, 0, -85, 85)" gradientUnits="userSpaceOnUse"><stop offset="0" stop-color="#63184c"/><stop offset="1" stop-color="#139a6d" stop-opacity="0.9"/></linearGradient><linearGradient id="Dégradé_sans_nom_12-2" x1="1427.84" y1="1352.82" x2="1212.89" y2="1147.57" xlink:href="#Dégradé_sans_nom_12"/><linearGradient id="Dégradé_sans_nom_12-3" x1="1489.45" y1="1358.96" x2="1343.85" y2="1248.98" xlink:href="#Dégradé_sans_nom_12"/><linearGradient id="Dégradé_sans_nom_12-4" x1="1518.78" y1="82.98" x2="1316.17" y2="419.87" xlink:href="#Dégradé_sans_nom_12"/><linearGradient id="Dégradé_sans_nom_12-5" x1="687.3" y1="1464.97" x2="262.74" y2="1119.66" gradientTransform="translate(1835.81 85) rotate(90)" xlink:href="#Dégradé_sans_nom_12"/><linearGradient id="Dégradé_sans_nom_12-6" x1="665.72" y1="1740.53" x2="450.13" y2="1534.67" gradientTransform="translate(1835.81 85) rotate(90)" xlink:href="#Dégradé_sans_nom_12"/><linearGradient id="Dégradé_sans_nom_12-7" x1="729.03" y1="1745.53" x2="583.02" y2="1635.24" gradientTransform="translate(1835.81 85) rotate(90)" xlink:href="#Dégradé_sans_nom_12"/><linearGradient id="Dégradé_sans_nom_12-8" x1="759.13" y1="467.41" x2="556.53" y2="804.3" gradientTransform="translate(1835.81 85) rotate(90)" xlink:href="#Dégradé_sans_nom_12"/></defs><g id="Calque_2" data-name="Calque 2"><g id="Calque_1-2" data-name="Calque 1"><g class="cls-1"><path class="cls-2" d="M0,1536V1385c36.28-11.22,79-17,120.88-17.46,72.21-.75,142.54,12.35,208.63,28.3s130,35,198.65,47.21c46.75,8.33,173.38,17.29,216.18-.4,157.22-65,157.46-144,162.66-171.06,9-46.82,31-122.92,97-109.26,25.14,5.2,99.24,6.63,136-1,33-6.83,64.66-18.09,95-57.56a291.49,291.49,0,0,0,36-63.41c11-27.37,3-30.25,5-56.59,4-52-53.37-120.82-97-136.58-27-9.76-137-42.92-156-70.24h343v759Z"/><path class="cls-3" d="M1366,1536H718.55c11-26.89,28.86-52.93,53.4-77,57.9-56.78,152.24-102.14,262.52-126.24,33.72-7.37,69.61-13,98-25.43,30.56-13.34,49.29-33.18,62.77-53.27,33-49.11,39.57-102.48,70.07-152.07,19.71-32,53.73-63.78,100.69-84.72Z"/><path class="cls-4" d="M895.48,1521.91c22.42-27.8,58.64-56.15,113.12-61.91,25-2.64,53.23-.52,73.54-8.89,17.56-7.24,23.34-20.08,27.18-31.93,1.86-5.72,3.65-11.63,9.32-16.53,13.62-11.8,43.48-13.5,68.91-12.73s53.61,2.36,73.83-6.13c15.76-6.61,22.39-17.71,28.06-28.13q22.15-40.79,42-81.92c8.9-18.52,17.67-37.36,34.6-54.06V1536H884.9C888.22,1531.27,891.72,1526.57,895.48,1521.91Z"/><path class="cls-5" d="M194.35,1453.15a291.8,291.8,0,0,1,71.08,24.34c33,16.15,59.89,36.23,77.25,58.51H0v-73C62,1449.18,131.77,1440.63,194.35,1453.15Z"/></g><g class="cls-1"><path class="cls-6" d="M1366,777V622.43c-36.28-11.49-79-17.43-120.88-17.87-72.21-.77-142.54,12.64-208.63,29s-130,35.81-198.65,48.33c-46.75,8.53-173.38,17.7-216.18-.42C464.44,614.92,464.2,534,459,506.34c-9-47.94-31-125.84-97-111.85-25.14,5.32-99.24,6.78-136-1-33-7-64.66-18.52-95-58.93a300.2,300.2,0,0,1-36-64.91c-11-28-3-31-5-57.93-4-53.26,53.37-123.68,97-139.81C214,61.92,324,28,343,0H0V777Z"/><path class="cls-7" d="M0,777H647.45c-11-27.53-28.86-54.19-53.4-78.82C536.15,640.05,441.81,593.61,331.53,569c-33.72-7.54-69.61-13.35-98-26-30.56-13.65-49.29-34-62.77-54.53-33-50.27-39.57-104.91-70.07-155.67C81,299.91,47,267.42,0,246Z"/><path class="cls-8" d="M470.52,762.57c-22.42-28.46-58.64-57.48-113.12-63.38-25-2.71-53.23-.54-73.54-9.11-17.56-7.41-23.34-20.55-27.18-32.68-1.86-5.85-3.65-11.9-9.32-16.92-13.62-12.07-43.48-13.82-68.91-13s-53.61,2.41-73.83-6.28C88.86,614.4,82.23,603,76.56,592.37q-22.15-41.73-42-83.85c-8.9-19-17.67-38.24-34.6-55.35V777H481.1C477.78,772.14,474.28,767.33,470.52,762.57Z"/><path class="cls-9" d="M1171.65,692.17a287.59,287.59,0,0,0-71.08,24.92c-33,16.53-59.89,37.1-77.25,59.9H1366V702.3C1304,688.11,1234.23,679.36,1171.65,692.17Z"/></g></g></g></svg>