<svg xmlns="http://www.w3.org/2000/svg" xmlns:xlink="http://www.w3.org/1999/xlink" viewBox="0 0 1366 769"><defs><style>.cls-1{fill:url(#Dégradé_sans_nom_12);}.cls-2{fill:url(#Dégradé_sans_nom_12-2);}.cls-3{fill:url(#Dégradé_sans_nom_12-3);}.cls-4{fill:url(#Dégradé_sans_nom_12-4);}.cls-5{fill:url(#Dégradé_sans_nom_12-5);}.cls-6{fill:url(#Dégradé_sans_nom_12-6);}.cls-7{fill:url(#Dégradé_sans_nom_12-7);}.cls-8{fill:url(#Dégradé_sans_nom_12-8);}</style><linearGradient id="Dégradé_sans_nom_12" x1="1153.84" y1="608.35" x2="755.78" y2="284.59" gradientTransform="matrix(0, 1, 1, 0, 299, -299)" gradientUnits="userSpaceOnUse"><stop offset="0" stop-color="#64114b"/><stop offset="1" stop-color="#10996d" stop-opacity="0.9"/></linearGradient><linearGradient id="Dégradé_sans_nom_12-2" x1="1108.99" y1="906.41" x2="902.42" y2="709.15" xlink:href="#Dégradé_sans_nom_12"/><linearGradient id="Dégradé_sans_nom_12-3" x1="1135.82" y1="937.48" x2="995.15" y2="831.24" xlink:href="#Dégradé_sans_nom_12"/><linearGradient id="Dégradé_sans_nom_12-4" x1="1149.15" y1="-292.97" x2="946.55" y2="43.92" xlink:href="#Dégradé_sans_nom_12"/><linearGradient id="Dégradé_sans_nom_12-5" x1="771.79" y1="995.15" x2="373.12" y2="670.9" gradientTransform="translate(1451.81 -299) rotate(90)" xlink:href="#Dégradé_sans_nom_12"/><linearGradient id="Dégradé_sans_nom_12-6" x1="727.5" y1="1292.74" x2="520.86" y2="1095.41" gradientTransform="translate(1451.81 -299) rotate(90)" xlink:href="#Dégradé_sans_nom_12"/><linearGradient id="Dégradé_sans_nom_12-7" x1="755.13" y1="1323.19" x2="614.47" y2="1216.95" gradientTransform="translate(1451.81 -299) rotate(90)" xlink:href="#Dégradé_sans_nom_12"/><linearGradient id="Dégradé_sans_nom_12-8" x1="768.84" y1="91.64" x2="566.23" y2="428.53" gradientTransform="translate(1451.81 -299) rotate(90)" xlink:href="#Dégradé_sans_nom_12"/></defs><g id="Calque_2" data-name="Calque 2"><g id="Calque_1-2" data-name="Calque 1"><path class="cls-1" d="M0,769V693.41c36.28-5.62,79-8.52,120.88-8.74,72.21-.38,142.54,6.18,208.63,14.17s130,17.51,198.65,23.64c46.75,4.17,173.38,8.65,216.18-.21C901.56,689.74,901.8,650.18,907,636.63c9-23.44,31-61.54,97-54.7,25.14,2.6,99.24,3.32,136-.49,33-3.42,64.66-9.06,95-28.82,9-5.86,25-18.07,36-31.74s3-15.15,5-28.33c4-26.05-53.37-60.49-97-68.38-27-4.89-137-21.49-156-35.17h343V769Z"/><path class="cls-2" d="M1366,769H718.55c11-13.46,28.86-26.5,53.4-38.55,57.9-28.42,152.24-51.13,262.52-63.2,33.72-3.69,69.61-6.52,98-12.73,30.56-6.68,49.29-16.61,62.77-26.67,33-24.59,39.57-51.31,70.07-76.13,19.71-16,53.73-31.93,100.69-42.42Z"/><path class="cls-3" d="M895.48,762c22.42-13.92,58.64-28.11,113.12-31,25-1.32,53.23-.26,73.54-4.45,17.56-3.63,23.34-10,27.18-16,1.86-2.86,3.65-5.82,9.32-8.27,13.62-5.91,43.48-6.76,68.91-6.38s53.61,1.18,73.83-3.06c15.76-3.32,22.39-8.87,28.06-14.09q22.15-20.41,42-41c8.9-9.27,17.67-18.7,34.6-27.07V769H884.9C888.22,766.63,891.72,764.28,895.48,762Z"/><path class="cls-4" d="M194.35,727.52a513.76,513.76,0,0,1,71.08,12.18c33,8.09,59.89,18.15,77.25,29.3H0V732.47C62,725.53,131.77,721.25,194.35,727.52Z"/><path class="cls-5" d="M1366,389V311.62c-36.28-5.75-79-8.72-120.88-8.95-72.21-.38-142.54,6.33-208.63,14.51s-130,17.92-198.65,24.19c-46.75,4.27-173.38,8.86-216.18-.2C464.44,307.86,464.2,267.36,459,253.5c-9-24-31-63-97-56-25.14,2.67-99.24,3.4-136-.5-33-3.5-64.66-9.27-95-29.5-9-6-25-18.5-36-32.5s-3-15.5-5-29c-4-26.67,53.37-61.92,97-70,27-5,137-22,156-36H0V389Z"/><path class="cls-6" d="M0,389H647.45c-11-13.78-28.86-27.13-53.4-39.46-57.9-29.1-152.24-52.35-262.52-64.7-33.72-3.77-69.61-6.68-98-13-30.56-6.84-49.29-17-62.77-27.3-33-25.17-39.57-52.52-70.07-77.94C81,150.15,47,133.88,0,123.15Z"/><path class="cls-7" d="M470.52,381.78C448.1,367.53,411.88,353,357.4,350.05c-25-1.35-53.23-.27-73.54-4.56-17.56-3.71-23.34-10.29-27.18-16.36-1.86-2.93-3.65-6-9.32-8.47-13.62-6.05-43.48-6.92-68.91-6.53s-53.61,1.21-73.83-3.14c-15.76-3.39-22.39-9.08-28.06-14.42q-22.15-20.9-42-42C25.7,245.1,16.93,235.44,0,226.88V389H481.1C477.78,386.57,474.28,384.17,470.52,381.78Z"/><path class="cls-8" d="M1171.65,346.54A502.78,502.78,0,0,0,1100.57,359c-33,8.28-59.89,18.57-77.25,30H1366V351.61C1304,344.51,1234.23,340.12,1171.65,346.54Z"/></g></g></svg>